# xmcd
#
# Track frame offsets:
# 150
# 19974
# 34201
# 48489
# 79048
# 90101
# 101133
# 120240
# 131217
# 131684
# 139058
# 152140
# 168158
#
# Disc length: 2455 seconds
#
#
# Revision: 0
# Processed by: cddbd v1.5.2PL0 Copyright (c) Steve Scherf et al.
# Submitted via: FreeRIP 2.945 
#
DISCID=a509950d
DTITLE=Various Artist - blue ribbon guitar
DYEAR=1900
DGENRE=Country
TTITLE0=Mark O' Connor - Blackberry Blossom
TTITLE1=David Grier - Tarnation
TTITLE2=Norma Blake, Tony Rice and Doc Watson - Salt Creek
TTITLE3=Ronnie and Rob Mc Coury - Shake Your Hips
TTITLE4=Russ Barenberg - Cooley's Reel
TTITLE5=Scott Nygaard - Bury Me Beneath The Willow
TTITLE6=Dan Crary - Huckleberry Hornpipe
TTITLE7=Wyatt Rice - Back Up And Push
TTITLE8=
TTITLE9=Doc And Merle Watson - Fisher's Hornpipe - Devil's Dream
TTITLE10=Tony Rice - Big Mon
TTITLE11=Norman Blake - Fiddler's Dream - Whiskey Before Breakfast
TTITLE12=Country Cooking - The Old, Old House
EXTD=
EXTT0=
EXTT1=
EXTT2=
EXTT3=
EXTT4=
EXTT5=
EXTT6=
EXTT7=
EXTT8=
EXTT9=
EXTT10=
EXTT11=
EXTT12=
PLAYORDER=
